<?xml version="1.0" encoding="utf-8"?>
<!-- Generator: Adobe Illustrator 23.0.1, SVG Export Plug-In . SVG Version: 6.00 Build 0)  -->
<svg version="1.1" id="Layer_1" xmlns="http://www.w3.org/2000/svg" xmlns:xlink="http://www.w3.org/1999/xlink" x="0px" y="0px"
	 viewBox="0 0 90 80" style="enable-background:new 0 0 90 80;" xml:space="preserve">
<path d="M79.9,54.2c2.6-2.1,4.1-5.2,4.1-8.6c0-6.1-4.9-11-11-11c-1.3,0-2.5,0.3-3.6,0.7c-0.3-1.3-1.1-3.2-2.7-5
	c1.4-1.2,2.1-3,2.1-4.9c0-3.7-3-6.7-6.7-6.7c-3.7,0-6.7,3-6.7,6.7c0,1.9,0.8,3.6,2.1,4.9c-0.9,1-1.5,2-2,2.9l-0.6-2.7
	c-0.1-0.5-0.5-0.8-1-0.8H53c-0.2-1-0.7-3.6-2.9-5.9c1.4-1.2,2.1-3,2.1-4.9c0-3.7-3-6.7-6.7-6.7c-3.7,0-6.7,3-6.7,6.7
	c0,1.9,0.8,3.6,2.1,4.9c-2.2,2.3-2.8,4.9-2.9,5.9h-1.1c-0.5,0-0.9,0.3-1,0.8l-0.6,2.7c-0.4-0.9-1.1-2-2-2.9c1.4-1.2,2.1-3,2.1-4.9
	c0-3.7-3-6.7-6.7-6.7c-3.7,0-6.7,3-6.7,6.7c0,1.9,0.8,3.6,2.1,4.9c-1.7,1.7-2.4,3.7-2.7,5c-1.1-0.4-2.4-0.7-3.6-0.7
	c-6.1,0-11,4.9-11,11c0,3.4,1.5,6.5,4.1,8.6c-5.1,4.9-5.6,11.1-5.6,11.3c0,0.5,0.4,1,0.9,1.1c0.5,0.1,1-0.4,1.1-0.9
	c0-0.1,0.5-6.4,5.9-10.8c0.2-0.2,0.4-0.5,0.4-0.8c0-0.3-0.2-0.6-0.5-0.8C10.6,51.6,9,48.7,9,45.6c0-5,4-9,9-9c5,0,9,4,9,9
	c0,3.1-1.6,6-4.3,7.6c-0.3,0.2-0.4,0.5-0.5,0.8c0,0.3,0.1,0.6,0.4,0.8c5.3,4.4,5.8,10.8,5.9,10.8c0,0,0,0,0,0c0,0.5,0.3,0.9,0.8,1
	c0.5,0.1,1.1-0.2,1.2-0.8l7.3-34.2h15.6L60.6,66c0.1,0.5,0.5,0.8,1,0.8c0.1,0,0.1,0,0.2,0c0.5-0.1,0.8-0.5,0.8-1c0,0,0,0,0-0.1
	c0-0.1,0.5-6.4,5.9-10.8c0.2-0.2,0.4-0.5,0.4-0.8c0-0.3-0.2-0.6-0.5-0.8c-2.7-1.7-4.3-4.5-4.3-7.6c0-3.4,1.9-6.3,4.7-7.9
	c0,0,0,0,0,0c0.3,0,0.5-0.2,0.7-0.4c1.1-0.5,2.3-0.8,3.6-0.8c5,0,9,4,9,9c0,3.1-1.6,6-4.3,7.6c-0.3,0.2-0.4,0.5-0.5,0.8
	c0,0.3,0.1,0.6,0.4,0.8c5.3,4.4,5.8,10.8,5.9,10.8c0,0.5,0.5,0.9,1,0.9c0,0,0.1,0,0.1,0c0.5,0,1-0.5,0.9-1.1
	C85.5,65.3,85,59.1,79.9,54.2z M24.9,54.2c2.6-2.1,4.1-5.2,4.1-8.6c0-4.1-2.2-7.6-5.5-9.5c0.2-1.1,1-3.4,3-5.1
	c0.2-0.2,0.4-0.5,0.4-0.8c0-0.3-0.2-0.6-0.5-0.8c-1.4-0.9-2.2-2.3-2.2-4c0-2.6,2.1-4.7,4.7-4.7c2.6,0,4.7,2.1,4.7,4.7
	c0,1.6-0.8,3.1-2.2,4c-0.3,0.2-0.4,0.5-0.5,0.8c0,0.3,0.1,0.6,0.4,0.8c2.9,2.4,3.2,5.8,3.2,5.8c0,0.1,0.1,0.2,0.1,0.3l-5.1,24.1
	C28.7,59.1,27.3,56.5,24.9,54.2z M43.2,24.5c0.2-0.2,0.4-0.5,0.4-0.8c0-0.3-0.2-0.6-0.5-0.8c-1.4-0.9-2.2-2.3-2.2-4
	c0-2.6,2.1-4.7,4.7-4.7c2.6,0,4.7,2.1,4.7,4.7c0,1.6-0.8,3.1-2.2,4c-0.3,0.2-0.4,0.5-0.5,0.8c0,0.3,0.1,0.6,0.4,0.8
	c2.1,1.8,2.8,4.2,3.1,5.2H40.1C40.3,28.7,41,26.3,43.2,24.5z M62,45.6c0,3.4,1.5,6.5,4.1,8.6c-2.4,2.3-3.8,4.9-4.6,7.1l-5.1-24
	c0.1-0.1,0.1-0.3,0.1-0.4c0,0,0.3-3.4,3.2-5.8c0.2-0.2,0.4-0.5,0.4-0.8c0-0.3-0.2-0.6-0.5-0.8c-1.4-0.9-2.2-2.3-2.2-4
	c0-2.6,2.1-4.7,4.7-4.7c2.6,0,4.7,2.1,4.7,4.7c0,1.6-0.8,3.1-2.2,4c-0.3,0.2-0.4,0.5-0.5,0.8c0,0.3,0.1,0.6,0.4,0.8
	c2.1,1.7,2.8,4,3,5.1C64.3,38,62,41.5,62,45.6z"/>
</svg>
