<?xml version="1.0" encoding="utf-8"?>
<!-- Generator: Adobe Illustrator 23.0.1, SVG Export Plug-In . SVG Version: 6.00 Build 0)  -->
<svg version="1.1" id="Layer_1" xmlns="http://www.w3.org/2000/svg" xmlns:xlink="http://www.w3.org/1999/xlink" x="0px" y="0px"
	 viewBox="0 0 90 80" style="enable-background:new 0 0 90 80;" xml:space="preserve">
<path d="M68.5,47.5c0.3-0.2,0.6-0.3,0.9-0.2l4.8,0.7c0.5,0.1,0.9-0.2,0.9-0.7c0.1-0.5-0.2-0.9-0.7-0.9l-4.8-0.7
	c-0.8-0.1-1.5,0.1-2.1,0.5c-0.6,0.5-1,1.1-1.1,1.9c-2.1-1.8-5.7-4.4-9.2-4.4c0,0-0.1,0-0.1,0c-3.5,0-8.5,1.4-12.9,3.1
	c-0.1-0.1-1.5-1.5-3.5-2.7c6.4-0.2,11.5-5.4,11.5-11.8c0-6.5-5.3-11.9-11.9-11.9c-6.6,0-11.9,5.3-11.9,11.9c0,4,2,7.5,5.1,9.7
	c-2.5,0.3-4.3,1.5-4.3,1.6c0,0-0.1,0.1-0.1,0.1c-0.8-0.3-1.6-0.5-2.3-0.7c-4.2-0.9-7.6,1.8-8.5,2.6c-3.6-0.4-6.2,1.5-6.8,2.9
	c-0.4,0.9-0.1,1.5,0.4,1.8c2.8,1.5,27.5,14.4,30.3,14.4c0,0,0,0,0,0c2.3-0.1,15.8-1,17.9-1.1l4,2.2l-0.3,2.8c-0.2,1.4,0.7,2.7,2,3.1
	l7.3,2.2c0.1,0,0.2,0,0.2,0c0.4,0,0.7-0.2,0.8-0.6c0.1-0.4-0.1-0.9-0.6-1L66.3,70c-0.5-0.2-0.9-0.7-0.8-1.3L68,48.3
	C68.1,48,68.2,47.7,68.5,47.5z M30.2,32.2c0-5.6,4.6-10.2,10.2-10.2c5.6,0,10.2,4.6,10.2,10.2c0,5.6-4.6,10.2-10.2,10.2
	C34.7,42.5,30.2,37.9,30.2,32.2z M34.5,43.5c3.2,0,6.7,2.8,8,3.9c-0.9,0.4-1.7,0.7-2.4,1.1c-1.2-0.6-5.3-2.8-9-4.2
	C31.9,44,33.1,43.5,34.5,43.5z M26.5,44.6c3.3,0.7,9.2,3.6,11.9,5c-1.1,0.7-2,1.5-2.7,2.3c-2.3-0.9-11.1-4.2-14.7-5.6
	c-0.2-0.1-0.4-0.1-0.6-0.2C21.8,45.2,24,44.1,26.5,44.6z M64.4,64l-3.7-2c-0.1-0.1-0.3-0.1-0.4-0.1c0,0,0,0-0.1,0
	c-0.2,0-15.7,1.1-18,1.2c-1.8-0.1-18.3-8.3-29.1-14c0.2-0.3,0.6-0.8,1.3-1.2c1-0.5,3-1.3,5.9-0.2c3.4,1.3,11.5,4.4,14.3,5.4
	c-0.6,1-0.9,1.9-1,2.5c-0.1,0.6,0.1,1.3,0.6,1.7c0.5,0.4,1.2,0.6,1.8,0.5c1.1-0.3,11.3-1.8,14.4-1.9c0.5,0,0.8-0.4,0.8-0.9
	c0-0.5-0.5-0.8-0.9-0.8c-3.1,0.2-13.3,1.7-14.7,2c-0.1,0-0.3,0-0.3-0.1c0,0-0.1-0.1-0.1-0.3c0.2-1.2,1.5-3.6,4.1-5.2
	c4.4-2.5,12.8-5.4,17.7-5.4c0,0,0,0,0.1,0c3.3,0,7.1,3.1,8.9,4.7L64.4,64z"/>
<path d="M61.1,31.4c3.6,0,6.5-2.9,6.5-6.5c0-3.6-2.9-6.5-6.5-6.5c-3.6,0-6.5,2.9-6.5,6.5C54.6,28.5,57.5,31.4,61.1,31.4z M61.1,20
	c2.7,0,4.9,2.2,4.9,4.8c0,2.7-2.2,4.9-4.9,4.9c-2.7,0-4.8-2.2-4.8-4.9C56.2,22.2,58.4,20,61.1,20z"/>
<path d="M46.3,18.2c2.6,0,4.7-2.1,4.7-4.7c0-1.3-0.5-2.4-1.4-3.3c-0.9-0.9-2.1-1.4-3.3-1.4c0,0,0,0,0,0c-1.3,0-2.4,0.5-3.3,1.4
	c-0.9,0.9-1.4,2.1-1.4,3.3C41.6,16.1,43.7,18.2,46.3,18.2z M44.2,11.4c0.6-0.6,1.3-0.9,2.2-0.9h0c0.8,0,1.6,0.3,2.2,0.9
	c0.6,0.6,0.9,1.3,0.9,2.2c0,1.7-1.4,3.1-3.1,3.1c-1.7,0-3.1-1.4-3.1-3.1C43.3,12.7,43.6,11.9,44.2,11.4z"/>
</svg>
