<?xml version="1.0" encoding="utf-8"?>
<!-- Generator: Adobe Illustrator 23.0.1, SVG Export Plug-In . SVG Version: 6.00 Build 0)  -->
<svg version="1.1" id="圖層_1" xmlns="http://www.w3.org/2000/svg" xmlns:xlink="http://www.w3.org/1999/xlink" x="0px" y="0px"
	 viewBox="0 0 512 512" style="enable-background:new 0 0 512 512;" xml:space="preserve">
<style type="text/css">
	.st0{fill:#B8183C;}
</style>
<path class="st0" d="M255.4,113.6c-77.3,0-140,52.4-140,117.2c0,59,52.2,107.8,120,116c0.7,0.2,1.4,0.3,2.1,0.5
	c9.7,1.6,11.4,5.3,9.1,15.2c-2.3,9.8-6.8,19-5.3,22.7c1.4,3.7,6.8,6.1,21.2-3.1c14.5-9.1,73.8-53,84.2-61.5c4.2-3.3,7.3-6.3,10.1-9
	c23.9-21,38.7-49.6,38.7-80.8C395.3,166,332.7,113.6,255.4,113.6z M200.8,284.1c-1.2,1-3,1.6-5.2,1.6h-26.4c-3.1,0-5.2-0.7-6.6-2.1
	c-1.4-1.4-1.9-3.6-1.9-6.6v-53.5c0-2.8,0.7-5,1.9-6.4c1.2-1.4,3-2.1,5-2.1c2.1,0,3.8,0.7,5.2,2.1c1.3,1.4,1.9,3.6,1.9,6.4V274h20.8
	c2.3,0,4,0.6,5.2,1.7s1.9,2.5,1.9,4.2S201.9,283,200.8,284.1z M224.6,278.2c0,2.9-0.7,5-1.9,6.5c-1.3,1.4-3.1,2.1-5.2,2.1
	c-2.1,0-3.7-0.7-5-2.1c-1.3-1.4-1.9-3.6-1.9-6.4v-54.6c0-2.8,0.7-5,1.9-6.4c1.3-1.4,3-2.1,5-2.1c2.1,0,3.8,0.7,5.2,2.1
	c1.3,1.4,1.9,3.6,1.9,6.4V278.2z M295.1,277.7c0,6.1-2.5,9.1-7.6,9.1c-1.3,0-2.4-0.2-3.4-0.6c-0.9-0.4-1.9-0.9-2.8-1.8
	c-0.9-0.7-1.7-1.8-2.4-2.8c-0.7-1-1.6-2.1-2.3-3.2l-26.2-40.3v40.5c0,2.7-0.7,4.6-1.9,6c-1.2,1.4-2.8,2.1-4.7,2.1
	c-1.9,0-3.6-0.7-4.7-2.1c-1.2-1.4-1.9-3.3-1.9-6v-53.5c0-2.3,0.2-4,0.7-5.3c0.7-1.4,1.6-2.6,3-3.5c1.4-0.9,2.9-1.4,4.4-1.4
	c1.3,0,2.3,0.2,3.2,0.7c0.9,0.4,1.7,0.9,2.3,1.7c0.7,0.7,1.4,1.6,2.1,2.8c0.7,1.2,1.4,2.3,2.2,3.4l26.9,40.8v-41.2
	c0-2.7,0.7-4.7,1.8-6c1.2-1.4,2.8-1.9,4.6-1.9c2.1,0,3.6,0.7,4.7,1.9c1.2,1.4,1.8,3.3,1.8,6L295.1,277.7L295.1,277.7z M348.5,283.3
	c-1.2,0.9-2.8,1.6-5,1.6h-30.2c-3.1,0-5.2-0.7-6.6-2.1c-1.4-1.4-1.9-3.6-1.9-6.6V224c0-2.1,0.3-3.6,0.9-5c0.7-1.3,1.6-2.2,2.8-2.8
	c1.3-0.7,2.9-0.9,4.9-0.9h28.9c2.2,0,3.8,0.6,5,1.6c1,0.9,1.6,2.3,1.6,3.8c0,1.7-0.6,3-1.6,3.9c-1,0.9-2.8,1.6-5,1.6h-23.8v17h21.2
	c2.1,0,3.7,0.5,4.7,1.4s1.6,2.2,1.6,3.8c0,1.6-0.6,2.9-1.6,3.8c-1,0.9-2.7,1.6-4.9,1.6h-21.2v19.7h24.8c2.2,0,3.8,0.6,5,1.6
	s1.7,2.3,1.7,4.1C350.2,280.9,349.6,282.3,348.5,283.3z"/>
</svg>
